<?xml version="1.0" standalone="no"?>
<!DOCTYPE svg PUBLIC "-//W3C//DTD SVG 20010904//EN"
 "http://www.w3.org/TR/2001/REC-SVG-20010904/DTD/svg10.dtd">
<svg version="1.0" xmlns="http://www.w3.org/2000/svg"
 width="512.000000pt" height="512.000000pt" viewBox="0 0 512.000000 512.000000"
 preserveAspectRatio="xMidYMid meet">

<g transform="translate(0.000000,512.000000) scale(0.100000,-0.100000)"
fill="#000000" stroke="none">
<path d="M2385 4900 c-444 -33 -869 -193 -1233 -464 -137 -102 -366 -331 -468
-468 -516 -692 -614 -1592 -259 -2379 114 -254 266 -472 479 -685 454 -453
1015 -686 1656 -686 641 0 1202 233 1656 686 371 371 587 800 665 1321 42 280
24 633 -47 910 -240 941 -1038 1642 -1994 1754 -130 15 -333 20 -455 11z m365
-430 c228 -24 436 -83 639 -180 1056 -510 1415 -1821 765 -2797 -41 -62 -79
-115 -85 -119 -13 -8 -2701 2676 -2696 2691 8 23 212 152 342 216 326 160 682
225 1035 189z m-341 -2064 c787 -787 1341 -1348 1337 -1355 -4 -6 -57 -44
-119 -85 -753 -501 -1736 -416 -2396 209 -268 253 -477 631 -550 995 -108 540
4 1064 326 1518 24 34 47 62 51 62 4 0 612 -605 1351 -1344z"/>
</g>
</svg>
