<?xml version="1.0" standalone="no"?>
<!DOCTYPE svg PUBLIC "-//W3C//DTD SVG 20010904//EN"
 "http://www.w3.org/TR/2001/REC-SVG-20010904/DTD/svg10.dtd">
<svg version="1.0" xmlns="http://www.w3.org/2000/svg"
 width="1080.000000pt" height="1052.000000pt" viewBox="0 0 1080.000000 1052.000000"
 preserveAspectRatio="xMidYMid meet">

<g transform="translate(0.000000,1052.000000) scale(0.100000,-0.100000)"
fill="#000000" stroke="none">
<path d="M4398 8763 c-606 -543 -1166 -1043 -1243 -1113 -77 -69 -348 -311
-603 -539 -254 -227 -462 -415 -462 -417 0 -9 210 -234 217 -233 5 1 190 164
412 363 222 198 419 374 437 389 l34 28 0 -1745 0 -1746 2315 0 2315 0 0 1745
c0 960 2 1745 5 1745 3 0 202 -175 442 -389 l436 -389 109 121 c88 97 107 122
96 132 -7 7 -166 149 -353 316 -412 368 -526 470 -1331 1190 -1362 1218 -1705
1524 -1713 1527 -5 2 -506 -441 -1113 -985z m1350 335 c131 -117 506 -451 833
-743 326 -291 669 -597 762 -679 l167 -150 0 -1728 0 -1728 -2000 0 -2000 0 1
1733 0 1732 277 246 c152 135 484 429 736 655 253 225 577 514 720 641 144
128 262 233 264 233 1 0 109 -96 240 -212z"/>
<path d="M5824 7746 c-121 -45 -206 -133 -256 -266 -10 -27 -13 -188 -16 -732
l-3 -698 -390 0 -391 0 7 30 c8 35 -18 96 -48 112 -11 6 -58 13 -104 16 l-83
5 0 113 0 113 155 3 c91 2 158 7 165 14 31 31 27 68 -42 384 -43 193 -76 325
-87 340 l-18 25 -259 3 c-142 1 -268 0 -279 -2 -11 -3 -25 -14 -32 -25 -7 -11
-44 -168 -83 -350 -76 -355 -77 -361 -24 -381 14 -6 88 -10 165 -10 l139 0 0
-117 0 -118 -62 3 c-86 4 -136 -14 -160 -58 -12 -22 -17 -47 -14 -66 l4 -32
-140 -4 -140 -3 -29 -33 -29 -32 0 -778 c0 -776 0 -778 21 -801 47 -50 111
-50 154 1 l25 30 0 704 0 704 790 0 790 0 0 -215 0 -215 390 0 390 0 0 1180 0
1180 -222 -1 c-206 0 -228 -2 -284 -23z m319 -977 c12 -7 25 -17 29 -23 4 -6
8 -78 8 -160 0 -125 -3 -152 -17 -168 -21 -24 -68 -23 -93 2 -18 18 -20 33
-20 158 0 157 4 176 33 190 29 14 34 14 60 1z"/>
<path d="M6460 6591 l0 -1181 390 0 390 0 -2 1028 -3 1027 -32 67 c-41 88
-113 160 -201 201 l-67 32 -237 3 -238 3 0 -1180z m239 170 c27 -27 33 -70 29
-206 -3 -109 -5 -118 -27 -136 -30 -25 -63 -24 -87 2 -16 18 -19 40 -22 159
-4 147 2 174 41 190 34 13 45 12 66 -9z"/>
<path d="M4388 5363 c-40 -6 -76 -48 -83 -96 -4 -23 -5 -220 -3 -437 3 -429 3
-427 60 -456 25 -13 38 -14 68 -5 77 23 75 8 78 422 l3 369 274 0 275 0 0
-364 c0 -356 0 -364 21 -390 41 -52 107 -56 154 -8 l25 25 0 438 0 439 -29 32
-29 33 -394 1 c-216 1 -405 -1 -420 -3z"/>
<path d="M5557 5273 c-4 -3 -7 -189 -7 -412 0 -367 2 -409 18 -441 23 -48 63
-66 112 -51 67 20 74 36 78 187 3 74 5 134 7 134 1 0 24 -10 51 -22 49 -23 51
-23 574 -23 521 0 525 0 580 22 30 13 56 23 56 23 1 0 3 -57 6 -127 3 -101 8
-134 22 -155 36 -55 118 -58 161 -6 l25 30 0 424 0 424 -838 0 c-461 0 -842
-3 -845 -7z"/>
<path d="M5341 3365 c-88 -27 -131 -102 -98 -171 24 -48 58 -63 220 -94 45 -9
57 -15 57 -30 0 -50 -119 -53 -169 -6 -24 23 -35 27 -77 24 -45 -3 -49 -5 -52
-31 -5 -46 58 -101 133 -117 119 -25 259 9 290 71 8 15 15 46 15 67 0 33 -6
45 -34 70 -33 29 -63 38 -214 67 -68 13 -44 65 29 65 26 0 47 -8 68 -26 25
-21 38 -25 83 -22 45 3 53 6 56 25 2 13 -9 35 -28 57 -53 60 -177 83 -279 51z"/>
<path d="M6633 3366 c-65 -21 -103 -54 -131 -114 -20 -45 -24 -65 -19 -111 10
-110 66 -176 170 -202 97 -24 220 9 266 71 12 17 27 56 34 86 17 82 10 88
-103 92 -99 3 -120 -4 -120 -43 0 -44 10 -55 51 -55 46 0 49 -11 13 -39 -40
-31 -96 -28 -136 8 -31 28 -33 33 -33 96 0 63 2 68 34 97 30 27 39 30 78 25
30 -3 54 -14 72 -31 25 -24 35 -27 82 -24 53 3 54 3 51 33 -4 36 -34 70 -86
97 -50 25 -166 33 -223 14z"/>
<path d="M3740 3155 l0 -216 63 3 62 3 3 56 3 57 92 4 c141 6 204 48 214 141
6 57 -22 105 -78 137 -41 23 -55 25 -201 28 l-158 4 0 -217z m282 98 c22 -20
23 -51 1 -75 -13 -14 -31 -18 -85 -18 l-68 0 0 55 0 55 67 0 c48 0 72 -5 85
-17z"/>
<path d="M4245 3358 c-3 -7 -4 -103 -3 -213 l3 -200 63 -3 62 -3 0 76 0 75 54
0 c61 0 75 -9 107 -74 35 -69 46 -76 110 -76 32 0 60 4 64 9 7 12 -58 132 -85
156 -18 17 -18 18 21 54 44 43 49 72 23 127 -30 64 -75 78 -256 82 -127 3
-159 1 -163 -10z"/>
<path d="M4770 3155 l0 -215 203 2 202 3 0 45 0 45 -137 3 -138 3 0 34 0 35
106 0 105 0 -3 48 -3 47 -102 3 -103 3 0 29 0 29 138 3 137 3 0 45 0 45 -202
3 -203 2 0 -215z"/>
<path d="M5687 3364 c-4 -4 -7 -27 -7 -51 l0 -43 75 0 75 0 2 -162 3 -163 60
0 60 0 3 162 2 162 73 3 72 3 0 45 0 45 -206 3 c-113 1 -208 -1 -212 -4z"/>
<path d="M6144 3356 c-3 -8 -4 -29 -2 -48 3 -30 6 -33 41 -36 l37 -3 0 -114 0
-114 -37 -3 c-38 -3 -38 -3 -38 -48 l0 -45 140 0 140 0 3 48 3 47 -40 0 -41 0
0 115 0 115 41 0 40 0 -3 48 -3 47 -138 3 c-112 2 -138 0 -143 -12z"/>
<path d="M7034 3357 c-2 -7 -3 -102 -2 -212 l3 -200 203 -3 202 -2 0 50 0 50
-141 0 -140 0 3 33 3 32 105 5 c101 5 105 6 108 29 2 12 1 34 -2 47 -6 23 -9
24 -112 24 l-105 0 3 28 3 27 138 3 137 3 0 49 0 50 -200 0 c-154 0 -202 -3
-206 -13z"/>
</g>
</svg>
