<?xml version="1.0" standalone="no"?>
<!DOCTYPE svg PUBLIC "-//W3C//DTD SVG 20010904//EN"
  "http://www.w3.org/TR/2001/REC-SVG-20010904/DTD/svg10.dtd">
<svg version="1.0" xmlns="http://www.w3.org/2000/svg"
     width="34" height="34" viewBox="0 0 1080.000000 1052.000000"
     preserveAspectRatio="xMidYMid meet">

  <g transform="translate(0.000000,1052.000000) scale(0.100000,-0.100000)"
     fill="#ffffff" stroke="none">
    <path d="M4398 8763 c-606 -543 -1166 -1043 -1243 -1113 -77 -69 -348 -311
-603 -539 -254 -227 -462 -415 -462 -417 0 -9 210 -234 217 -233 5 1 190 164
412 363 222 198 419 374 437 389 l34 28 0 -1745 0 -1746 2315 0 2315 0 0 1745
c0 960 2 1745 5 1745 3 0 202 -175 442 -389 l436 -389 109 121 c88 97 107 122
96 132 -7 7 -166 149 -353 316 -412 368 -526 470 -1331 1190 -1362 1218 -1705
1524 -1713 1527 -5 2 -506 -441 -1113 -985z m1350 335 c131 -117 506 -451 833
-743 326 -291 669 -597 762 -679 l167 -150 0 -1728 0 -1728 -2000 0 -2000 0 1
1733 0 1732 277 246 c152 135 484 429 736 655 253 225 577 514 720 641 144
128 262 233 264 233 1 0 109 -96 240 -212z"/>
    <path d="M5824 7746 c-121 -45 -206 -133 -256 -266 -10 -27 -13 -188 -16 -732
l-3 -698 -390 0 -391 0 7 30 c8 35 -18 96 -48 112 -11 6 -58 13 -104 16 l-83
5 0 113 0 113 155 3 c91 2 158 7 165 14 31 31 27 68 -42 384 -43 193 -76 325
-87 340 l-18 25 -259 3 c-142 1 -268 0 -279 -2 -11 -3 -25 -14 -32 -25 -7 -11
-44 -168 -83 -350 -76 -355 -77 -361 -24 -381 14 -6 88 -10 165 -10 l139 0 0
-117 0 -118 -62 3 c-86 4 -136 -14 -160 -58 -12 -22 -17 -47 -14 -66 l4 -32
-140 -4 -140 -3 -29 -33 -29 -32 0 -778 c0 -776 0 -778 21 -801 47 -50 111
-50 154 1 l25 30 0 704 0 704 790 0 790 0 0 -215 0 -215 390 0 390 0 0 1180 0
1180 -222 -1 c-206 0 -228 -2 -284 -23z m319 -977 c12 -7 25 -17 29 -23 4 -6
8 -78 8 -160 0 -125 -3 -152 -17 -168 -21 -24 -68 -23 -93 2 -18 18 -20 33
-20 158 0 157 4 176 33 190 29 14 34 14 60 1z"/>
    <path d="M6460 6591 l0 -1181 390 0 390 0 -2 1028 -3 1027 -32 67 c-41 88
-113 160 -201 201 l-67 32 -237 3 -238 3 0 -1180z m239 170 c27 -27 33 -70 29
-206 -3 -109 -5 -118 -27 -136 -30 -25 -63 -24 -87 2 -16 18 -19 40 -22 159
-4 147 2 174 41 190 34 13 45 12 66 -9z"/>
    <path d="M4388 5363 c-40 -6 -76 -48 -83 -96 -4 -23 -5 -220 -3 -437 3 -429 3
-427 60 -456 25 -13 38 -14 68 -5 77 23 75 8 78 422 l3 369 274 0 275 0 0
-364 c0 -356 0 -364 21 -390 41 -52 107 -56 154 -8 l25 25 0 438 0 439 -29 32
-29 33 -394 1 c-216 1 -405 -1 -420 -3z"/>
    <path d="M5557 5273 c-4 -3 -7 -189 -7 -412 0 -367 2 -409 18 -441 23 -48 63
-66 112 -51 67 20 74 36 78 187 3 74 5 134 7 134 1 0 24 -10 51 -22 49 -23 51
-23 574 -23 521 0 525 0 580 22 30 13 56 23 56 23 1 0 3 -57 6 -127 3 -101 8
-134 22 -155 36 -55 118 -58 161 -6 l25 30 0 424 0 424 -838 0 c-461 0 -842
-3 -845 -7z"/>
  </g>
</svg>
